<svg width="158" height="181" viewBox="0 0 158 181" fill="none" xmlns="http://www.w3.org/2000/svg">
<path d="M67.5 0C82.598 1.80042e-07 97.4561 3.77726 110.721 10.9878C123.986 18.1982 135.236 28.6128 143.447 41.2829C151.658 53.9531 156.568 68.4761 157.731 83.5292C158.894 98.5823 156.272 113.687 150.105 127.468C143.938 141.249 134.421 153.268 122.421 162.43C110.421 171.593 96.3191 177.607 81.4002 179.926C66.4814 182.245 51.2194 180.795 37.0044 175.707C22.7895 170.62 10.0731 162.057 0.0137081 150.798L23.6213 129.705C30.1618 137.025 38.4298 142.593 47.6722 145.901C56.9146 149.208 66.8377 150.151 76.5377 148.644C86.2378 147.136 95.4064 143.225 103.209 137.268C111.011 131.311 117.199 123.496 121.209 114.536C125.219 105.576 126.923 95.755 126.167 85.9677C125.411 76.1803 122.218 66.7377 116.88 58.4997C111.541 50.2618 104.226 43.4904 95.6017 38.8022C86.977 34.114 77.3165 31.6581 67.5 31.6581V0Z" fill="url(#paint0_linear_0_101)"/>
<defs>
<linearGradient id="paint0_linear_0_101" x1="24.784" y1="-93.2218" x2="215.211" y2="-31.6829" gradientUnits="userSpaceOnUse">
<stop stop-color="#EAABF0"/>
<stop offset="1" stop-color="#4623E9"/>
</linearGradient>
</defs>
</svg>
