<svg width="42" height="42" viewBox="0 0 42 42" fill="none" xmlns="http://www.w3.org/2000/svg">
<path d="M12.5471 39.8118C8.38215 39.8118 4.96972 36.7843 4.96972 33.0568V29.4868C4.96972 28.7693 5.56472 28.1743 6.28222 28.1743C6.99972 28.1743 7.59472 28.7693 7.59472 29.4868C7.59472 31.6743 9.71215 33.3193 12.5471 33.3193C15.3821 33.3193 17.4997 31.6743 17.4997 29.4868C17.4997 28.7693 18.0946 28.1743 18.8122 28.1743C19.5296 28.1743 20.1247 28.7693 20.1247 29.4868V33.0568C20.1247 36.7843 16.7296 39.8118 12.5471 39.8118ZM8.04963 34.7718C8.81963 36.2068 10.5521 37.1868 12.5471 37.1868C14.5421 37.1868 16.2747 36.1893 17.0447 34.7718C15.8022 35.5243 14.2621 35.9618 12.5471 35.9618C10.8321 35.9618 9.29213 35.5243 8.04963 34.7718Z" fill="#0F5FC2"/>
<path d="M12.5471 31.149C9.67715 31.149 7.1047 29.8365 5.8272 27.754C5.2672 26.844 4.96972 25.7765 4.96972 24.6915C4.96972 22.854 5.7747 21.139 7.2447 19.8615C10.0797 17.3765 14.9622 17.3766 17.8147 19.8441C19.2846 21.1391 20.1072 22.854 20.1072 24.6915C20.1072 25.7765 19.8096 26.844 19.2497 27.754C17.9896 29.8365 15.4171 31.149 12.5471 31.149ZM12.5471 20.5616C11.1821 20.5616 9.92218 21.0165 8.97718 21.839C8.08468 22.609 7.59472 23.624 7.59472 24.6915C7.59472 25.304 7.75215 25.8641 8.06715 26.3891C8.87215 27.7191 10.5871 28.5416 12.5471 28.5416C14.5071 28.5416 16.2221 27.7191 17.0096 26.4066C17.3246 25.8991 17.4822 25.3216 17.4822 24.7091C17.4822 23.6416 16.9922 22.6265 16.0997 21.839C15.1722 21.0165 13.9121 20.5616 12.5471 20.5616Z" fill="#0F5FC2"/>
<path d="M12.5471 35.9625C8.22465 35.9625 4.96972 33.18 4.96972 29.505V24.6925C4.96972 20.965 8.36465 17.9375 12.5471 17.9375C14.5246 17.9375 16.4147 18.62 17.8322 19.845C19.3022 21.14 20.1247 22.855 20.1247 24.6925V29.505C20.1247 33.18 16.8696 35.9625 12.5471 35.9625ZM12.5471 20.5625C9.81715 20.5625 7.59472 22.4175 7.59472 24.6925V29.505C7.59472 31.6925 9.71215 33.3375 12.5471 33.3375C15.3821 33.3375 17.4997 31.6925 17.4997 29.505V24.6925C17.4997 23.625 17.0097 22.61 16.1172 21.8225C15.1722 21.0175 13.9121 20.5625 12.5471 20.5625Z" fill="#0F5FC2"/>
<path d="M33.3198 25.9003C30.6773 25.9003 28.4373 23.9403 28.2273 21.4203C28.0873 19.9678 28.6123 18.5503 29.6623 17.5178C30.5373 16.6078 31.7798 16.1003 33.0923 16.1003H36.7498C38.4823 16.1528 39.8123 17.5178 39.8123 19.1978V22.8028C39.8123 24.4828 38.4823 25.8478 36.8023 25.9003H33.3198ZM36.6973 18.7253H33.1098C32.4973 18.7253 31.9373 18.9528 31.5348 19.3728C31.0273 19.8628 30.7823 20.5278 30.8523 21.1928C30.9398 22.3478 32.0598 23.2753 33.3198 23.2753H36.7498C36.9773 23.2753 37.1873 23.0653 37.1873 22.8028V19.1978C37.1873 18.9353 36.9773 18.7428 36.6973 18.7253Z" fill="#0F5FC2"/>
<path d="M28.0004 37.1875H23.6254C22.9079 37.1875 22.3129 36.5925 22.3129 35.875C22.3129 35.1575 22.9079 34.5625 23.6254 34.5625H28.0004C32.5154 34.5625 35.4379 31.64 35.4379 27.125V25.9H33.3204C30.6778 25.9 28.4379 23.94 28.2279 21.42C28.0879 19.9675 28.613 18.55 29.663 17.5175C30.538 16.6075 31.7804 16.1 33.0929 16.1H35.4204V14.875C35.4204 10.78 33.023 7.96246 29.138 7.50746C28.718 7.43746 28.3504 7.4375 27.9829 7.4375H12.2329C11.8129 7.4375 11.4104 7.47248 11.0079 7.52498C7.15788 8.01498 4.7954 10.815 4.7954 14.875V18.375C4.7954 19.0925 4.2004 19.6875 3.4829 19.6875C2.7654 19.6875 2.1704 19.0925 2.1704 18.375V14.875C2.1704 9.485 5.49547 5.58252 10.658 4.93502C11.1305 4.86502 11.6729 4.8125 12.2329 4.8125H27.9829C28.4029 4.8125 28.9454 4.83 29.5054 4.9175C34.6679 5.5125 38.0454 9.4325 38.0454 14.875V17.4125C38.0454 18.13 37.4504 18.725 36.7329 18.725H33.0929C32.4804 18.725 31.9205 18.9525 31.518 19.3725C31.0105 19.8625 30.7654 20.5275 30.8354 21.1925C30.9228 22.3475 32.043 23.275 33.303 23.275H36.7504C37.4679 23.275 38.0629 23.87 38.0629 24.5875V27.125C38.0629 33.145 34.0204 37.1875 28.0004 37.1875Z" fill="#0F5FC2"/>
</svg>
